<svg width="1134" height="116" viewBox="0 0 1134 116" fill="none" xmlns="http://www.w3.org/2000/svg">
<mask id="path-1-inside-1_646_2667" fill="white">
<path d="M0 10C0 4.47715 4.47715 0 10 0H1124C1129.52 0 1134 4.47715 1134 10V116H0V10Z"/>
</mask>
<path d="M0 10C0 4.47715 4.47715 0 10 0H1124C1129.52 0 1134 4.47715 1134 10V116H0V10Z" fill="url(#paint0_linear_646_2667)"/>
<path d="M0 0H1134H0ZM1134 117H0V115H1134V117ZM0 116V0V116ZM1134 0V116V0Z" fill="#4169E1" fill-opacity="0.6" mask="url(#path-1-inside-1_646_2667)"/>
<defs>
<linearGradient id="paint0_linear_646_2667" x1="567" y1="0" x2="567" y2="116" gradientUnits="userSpaceOnUse">
<stop stop-color="#E8E8FE"/>
<stop offset="1" stop-color="#C6D2F6"/>
</linearGradient>
</defs>
</svg>
