<svg width="24" height="23" viewBox="0 0 24 23" fill="none" xmlns="http://www.w3.org/2000/svg">
<path d="M16.19 2.08591H7.81C4.17 2.08591 2 4.128 2 7.55346V15.4301C2 18.865 4.17 20.9071 7.81 20.9071H16.18C19.82 20.9071 21.99 18.865 21.99 15.4395V7.55346C22 4.128 19.83 2.08591 16.19 2.08591ZM16.37 13.9715L14.15 16.0606C13.61 16.5688 12.91 16.8135 12.21 16.8135C11.51 16.8135 10.8 16.5594 10.27 16.0606C9.2 15.0537 9.2 13.4068 10.27 12.3999L11.68 11.073C11.97 10.8001 12.45 10.8001 12.74 11.073C13.03 11.3459 13.03 11.7976 12.74 12.0705L11.33 13.3974C10.84 13.8586 10.84 14.602 11.33 15.0631C11.82 15.5242 12.61 15.5242 13.1 15.0631L15.32 12.974C15.93 12.3999 16.27 11.6282 16.27 10.8095C16.27 9.9908 15.93 9.22854 15.32 8.64509C14.09 7.48759 11.95 7.48759 10.72 8.64509L8.29 10.9319C7.25 11.9106 7.25 13.5104 8.29 14.4985C8.58 14.7714 8.58 15.2231 8.29 15.496C8 15.7689 7.52 15.7689 7.23 15.496C5.6 13.9621 5.6 11.4683 7.23 9.93434L9.65 7.65698C10.55 6.81002 11.74 6.3489 13.01 6.3489C14.28 6.3489 15.47 6.81002 16.37 7.65698C17.27 8.50393 17.76 9.62379 17.76 10.8189C17.76 12.0141 17.27 13.1339 16.37 13.9715Z" fill="#292D32"/>
</svg>
