<svg width="21" height="20" viewBox="0 0 21 20" fill="none" xmlns="http://www.w3.org/2000/svg">
<path d="M18.7151 7.87526L18.716 7.86107C18.7208 7.78249 18.6994 7.70186 18.6514 7.63016C18.608 7.57196 18.5444 7.52648 18.4685 7.50338L18.46 7.50082L18.4517 7.49796L16.853 6.94967C16.8521 6.94938 16.8513 6.94909 16.8504 6.9488C16.2669 6.75521 15.7374 6.43021 15.3054 5.99905C14.8663 5.57787 14.5302 5.06273 14.3267 4.49329L14.324 4.48574L14.324 4.48572L13.7863 2.90157C13.7607 2.83528 13.7122 2.77606 13.6453 2.73525L13.6367 2.73001L13.6367 2.72993C13.5609 2.68159 13.4703 2.65601 13.377 2.6582L13.3681 2.6584V2.65832C13.2837 2.6588 13.2037 2.68706 13.1409 2.73599L13.1299 2.74458L13.1298 2.74442C13.0675 2.7903 13.0249 2.85281 13.0056 2.92057L13.0019 2.93358L12.9975 2.94636L12.4657 4.48803L12.4639 4.4933L12.4639 4.49329C12.2603 5.06287 11.924 5.57813 11.4848 5.99936C11.0493 6.43249 10.5154 6.75796 9.92738 6.95019C9.92731 6.95021 9.92724 6.95023 9.92716 6.95026L8.32363 7.47519L8.31331 7.47857L8.31327 7.47845C8.22828 7.50425 8.15686 7.55526 8.10794 7.62099C8.05918 7.68825 8.03411 7.76677 8.03411 7.84583C8.03411 7.92401 8.05863 8.00167 8.10632 8.06842C8.15493 8.1313 8.22441 8.18006 8.30661 8.2052L8.31519 8.20783L8.31517 8.2079L9.92749 8.7329L9.93336 8.73481L9.93334 8.73485C10.5112 8.93093 11.0359 9.25451 11.4659 9.68136C11.9094 10.0952 12.2465 10.6067 12.448 11.1744L12.4495 11.1786L12.4494 11.1787L12.9897 12.7453L12.9925 12.7533L12.9924 12.7533C13.0107 12.8094 13.0429 12.8618 13.0875 12.9058C13.1321 12.9497 13.188 12.9838 13.251 13.0041C13.3141 13.0244 13.3816 13.03 13.4478 13.0201C13.5139 13.0103 13.5756 12.9855 13.6282 12.9488L18.7151 7.87526ZM18.7151 7.87526L18.7151 7.88948M18.7151 7.87526L18.7151 7.88948M18.7151 7.88948C18.7147 7.96782 18.6892 8.04556 18.64 8.11179C18.5907 8.17798 18.5197 8.22985 18.4352 8.25759C18.4348 8.25769 18.4345 8.2578 18.4342 8.2579L16.8241 8.77385L16.8222 8.77447M18.7151 7.88948L16.8222 8.77447M16.8222 8.77447C16.2438 8.9624 15.7173 9.27927 15.2849 9.701M16.8222 8.77447L15.2849 9.701M15.2849 9.701C14.8536 10.1218 14.5279 10.6355 14.3348 11.2019M15.2849 9.701L14.3348 11.2019M14.3348 11.2019L13.7798 12.7536C13.7796 12.754 13.7795 12.7544 13.7793 12.7548C13.7514 12.8305 13.6996 12.8987 13.6283 12.9487L14.3348 11.2019ZM8.87249 14.3327L8.87246 14.3326L8.86327 14.3357C8.47024 14.4715 8.11302 14.693 7.81923 14.9843C7.52337 15.2699 7.29509 15.6165 7.15174 15.9999L7.15171 15.9998L7.14976 16.0052L6.74668 17.1219L6.74666 17.1219L6.74516 17.1262C6.72414 17.1861 6.68464 17.2409 6.62936 17.2824C6.56991 17.3214 6.49827 17.3432 6.42368 17.3432C6.34908 17.3432 6.27744 17.3214 6.218 17.2824C6.16336 17.2414 6.12413 17.1874 6.10294 17.1283L5.72671 16.0149L5.72438 16.008L5.72186 16.0012C5.57901 15.6159 5.34938 15.2678 5.05098 14.9823C4.75694 14.6946 4.40203 14.4745 4.01211 14.3368L4.00441 14.3341L3.99663 14.3317L2.84552 13.9671C2.77631 13.9425 2.71858 13.899 2.67839 13.8446L2.6771 13.8428C2.63775 13.79 2.6163 13.7288 2.61348 13.6669C2.61637 13.6045 2.63813 13.543 2.67799 13.49C2.71958 13.4347 2.77935 13.391 2.85074 13.3673L3.99766 13.0013L4.00647 12.9985L4.01517 12.9954C4.40322 12.8556 4.75671 12.6356 5.05104 12.3496C5.34542 12.0636 5.57369 11.7182 5.71931 11.3366L5.71948 11.3367L5.72398 11.3239L6.1099 10.2239L6.11002 10.2239L6.11348 10.2133C6.13281 10.154 6.1701 10.0993 6.223 10.057C6.28023 10.016 6.35034 9.9914 6.42453 9.98824C6.4972 9.98515 6.56821 10.0028 6.62871 10.0377C6.68532 10.0779 6.72928 10.1318 6.75683 10.194L7.13696 11.3185L7.14005 11.3276L7.14349 11.3366C7.2891 11.7182 7.51738 12.0636 7.81175 12.3496C8.10608 12.6356 8.45958 12.8556 8.84763 12.9954L8.8476 12.9955L8.85583 12.9983L10.005 13.3899L10.0126 13.3925L10.0202 13.3948C10.0795 13.413 10.1278 13.4491 10.1592 13.4942L10.1719 13.5124L10.1861 13.5294C10.224 13.5746 10.2451 13.6268 10.2501 13.6784C10.2475 13.7362 10.2287 13.7934 10.1942 13.8438C10.1531 13.8951 10.096 13.9356 10.0285 13.9582C10.028 13.9584 10.0276 13.9585 10.0272 13.9587L8.87249 14.3327Z" stroke="white"/>
</svg>
