<svg width="21" height="20" viewBox="0 0 21 20" fill="none" xmlns="http://www.w3.org/2000/svg">
<path d="M13.1705 1.22737L12.5465 3.08737C12.3144 3.79458 11.9194 4.43735 11.3932 4.96384C10.8671 5.49033 10.2246 5.8858 9.51752 6.11837L7.63552 6.74337C7.5717 6.76377 7.51602 6.80391 7.47652 6.85802C7.43701 6.91212 7.41572 6.97738 7.41572 7.04437C7.41572 7.11136 7.43701 7.17662 7.47652 7.23073C7.51602 7.28483 7.5717 7.32498 7.63552 7.34537L9.51752 7.97037C10.2178 8.20325 10.8541 8.59633 11.3758 9.11835C11.8974 9.64037 12.2901 10.2769 12.5225 10.9774L13.1475 12.8614C13.1689 12.924 13.2093 12.9783 13.2631 13.0168C13.3169 13.0553 13.3814 13.076 13.4475 13.076C13.5137 13.076 13.5781 13.0553 13.6319 13.0168C13.6857 12.9783 13.7261 12.924 13.7475 12.8614L14.3965 11.0014C14.6294 10.3012 15.0222 9.66489 15.5438 9.14294C16.0654 8.62098 16.7015 8.22774 17.4015 7.99437L19.2825 7.36937C19.3463 7.34898 19.402 7.30883 19.4415 7.25472C19.481 7.20062 19.5023 7.13536 19.5023 7.06837C19.5023 7.00138 19.481 6.93612 19.4415 6.88202C19.402 6.82791 19.3463 6.78777 19.2825 6.76737L17.4245 6.11837C16.7174 5.88617 16.0748 5.4908 15.5488 4.96425C15.0227 4.4377 14.628 3.79474 14.3965 3.08737L13.7715 1.20337C13.7478 1.14151 13.7052 1.08864 13.6499 1.05221C13.5945 1.01577 13.5291 0.997605 13.4629 1.00025C13.3967 1.0029 13.333 1.02624 13.2807 1.06697C13.2284 1.10771 13.1893 1.16381 13.1705 1.22737ZM5.10952 9.82837L4.66352 11.1564C4.49778 11.6615 4.21568 12.1205 3.83997 12.4966C3.46426 12.8726 3.00545 13.1552 2.50052 13.3214L1.15552 13.7684C1.12167 13.7794 1.09091 13.7982 1.06576 13.8234C1.04062 13.8486 1.02181 13.8794 1.01088 13.9133C0.999946 13.9471 0.997204 13.9831 1.00288 14.0182C1.00855 14.0534 1.02248 14.0867 1.04352 14.1154C1.07117 14.1541 1.11037 14.1832 1.15552 14.1984L2.50052 14.6444C3.00066 14.8108 3.45507 15.0916 3.82761 15.4645C4.20016 15.8374 4.48056 16.2921 4.64652 16.7924L5.09252 18.1384C5.10723 18.1838 5.13597 18.2234 5.1746 18.2515C5.21322 18.2796 5.25976 18.2947 5.30752 18.2947C5.35528 18.2947 5.40181 18.2796 5.44044 18.2515C5.47906 18.2234 5.5078 18.1838 5.52252 18.1384L5.98452 16.8094C6.15075 16.3092 6.43125 15.8547 6.80375 15.4818C7.17626 15.109 7.63052 14.8281 8.13052 14.6614L9.47552 14.2154C9.52095 14.2007 9.56056 14.1719 9.58865 14.1333C9.61674 14.0947 9.63187 14.0481 9.63187 14.0004C9.63187 13.9526 9.61674 13.9061 9.58865 13.8675C9.56056 13.8288 9.52095 13.8001 9.47552 13.7854L8.14752 13.3214C7.64243 13.1554 7.18347 12.873 6.80772 12.4969C6.43197 12.1208 6.14997 11.6616 5.98452 11.1564L5.53852 9.81137C5.52209 9.76642 5.49182 9.72785 5.45207 9.70121C5.41232 9.67457 5.36514 9.66123 5.31732 9.66312C5.2695 9.66501 5.22352 9.68203 5.186 9.71173C5.14847 9.74143 5.12134 9.78227 5.10852 9.82837" fill="black"/>
<path d="M5.10952 9.82837L4.66352 11.1564C4.49778 11.6615 4.21568 12.1205 3.83997 12.4966C3.46426 12.8726 3.00545 13.1552 2.50052 13.3214L1.15552 13.7684C1.12167 13.7794 1.09091 13.7982 1.06576 13.8234C1.04062 13.8486 1.02181 13.8794 1.01088 13.9133C0.999946 13.9471 0.997204 13.9831 1.00288 14.0182C1.00855 14.0534 1.02248 14.0867 1.04352 14.1154C1.07117 14.1541 1.11037 14.1832 1.15552 14.1984L2.50052 14.6444C3.00066 14.8108 3.45507 15.0916 3.82761 15.4645C4.20016 15.8374 4.48056 16.2921 4.64652 16.7924L5.09252 18.1384C5.10723 18.1838 5.13597 18.2234 5.1746 18.2515C5.21322 18.2796 5.25976 18.2947 5.30752 18.2947C5.35528 18.2947 5.40181 18.2796 5.44044 18.2515C5.47906 18.2234 5.5078 18.1838 5.52252 18.1384L5.98452 16.8094C6.15075 16.3092 6.43125 15.8547 6.80375 15.4818C7.17626 15.109 7.63052 14.8281 8.13052 14.6614L9.47552 14.2154C9.52095 14.2007 9.56056 14.1719 9.58865 14.1333C9.61674 14.0947 9.63187 14.0481 9.63187 14.0004C9.63187 13.9526 9.61674 13.9061 9.58865 13.8675C9.56056 13.8288 9.52095 13.8001 9.47552 13.7854L8.14752 13.3214C7.64243 13.1554 7.18347 12.873 6.80772 12.4969C6.43197 12.1208 6.14997 11.6616 5.98452 11.1564L5.53852 9.81137C5.52209 9.76642 5.49182 9.72785 5.45207 9.70121C5.41232 9.67457 5.36513 9.66123 5.31732 9.66312C5.2695 9.66501 5.22352 9.68203 5.186 9.71173C5.14847 9.74143 5.12134 9.78227 5.10852 9.82837M13.1705 1.22737L12.5465 3.08737C12.3144 3.79458 11.9194 4.43735 11.3932 4.96384C10.8671 5.49033 10.2246 5.8858 9.51752 6.11837L7.63552 6.74337C7.5717 6.76377 7.51602 6.80391 7.47652 6.85802C7.43701 6.91212 7.41572 6.97738 7.41572 7.04437C7.41572 7.11136 7.43701 7.17662 7.47652 7.23073C7.51602 7.28483 7.5717 7.32498 7.63552 7.34537L9.51752 7.97037C10.2178 8.20325 10.8541 8.59633 11.3758 9.11835C11.8974 9.64037 12.2901 10.2769 12.5225 10.9774L13.1475 12.8614C13.1689 12.924 13.2093 12.9783 13.2631 13.0168C13.3169 13.0553 13.3814 13.076 13.4475 13.076C13.5137 13.076 13.5781 13.0553 13.6319 13.0168C13.6857 12.9783 13.7261 12.924 13.7475 12.8614L14.3965 11.0014C14.6294 10.3012 15.0222 9.66489 15.5438 9.14294C16.0654 8.62098 16.7015 8.22774 17.4015 7.99437L19.2825 7.36937C19.3463 7.34898 19.402 7.30883 19.4415 7.25472C19.481 7.20062 19.5023 7.13536 19.5023 7.06837C19.5023 7.00138 19.481 6.93612 19.4415 6.88202C19.402 6.82791 19.3463 6.78777 19.2825 6.76737L17.4245 6.11837C16.7174 5.88617 16.0748 5.4908 15.5488 4.96425C15.0227 4.4377 14.628 3.79474 14.3965 3.08737L13.7715 1.20337C13.7478 1.14151 13.7052 1.08864 13.6499 1.05221C13.5945 1.01577 13.5291 0.997605 13.4629 1.00025C13.3967 1.0029 13.333 1.02624 13.2807 1.06697C13.2284 1.10771 13.1893 1.16381 13.1705 1.22737Z" stroke="black" stroke-width="1.5" stroke-linecap="round" stroke-linejoin="round"/>
</svg>
