<svg width="24" height="24" viewBox="0 0 24 24" fill="none" xmlns="http://www.w3.org/2000/svg">
<g clip-path="url(#clip0_46_1026)">
<path d="M20 6.85664C21.5188 6.85664 22.75 5.69799 22.75 4.26873C22.75 2.83946 21.5188 1.68082 20 1.68082C18.4812 1.68082 17.25 2.83946 17.25 4.26873C17.25 5.69799 18.4812 6.85664 20 6.85664Z" fill="#292D32"/>
<path d="M19.04 8.17411C17.47 7.85415 16.19 6.64959 15.85 5.17213C15.72 4.59809 15.71 4.04286 15.82 3.51587C15.95 2.93241 15.49 2.3866 14.85 2.3866H7C4.24 2.3866 2 4.49457 2 7.09189V13.6323C2 16.2296 4.24 18.3375 7 18.3375H8.5C8.78 18.3375 9.14 18.5069 9.3 18.714L10.8 20.5867C11.46 21.4148 12.54 21.4148 13.2 20.5867L14.7 18.714C14.89 18.4787 15.18 18.3375 15.5 18.3375H17.01C19.77 18.3375 22 16.239 22 13.6417V9.11517C22 8.5223 21.42 8.08941 20.8 8.20234C20.24 8.29645 19.65 8.29645 19.04 8.17411ZM8 11.7972C7.44 11.7972 7 11.3737 7 10.8561C7 10.3385 7.44 9.91507 8 9.91507C8.55 9.91507 9 10.3385 9 10.8561C9 11.3737 8.56 11.7972 8 11.7972ZM12 11.7972C11.44 11.7972 11 11.3737 11 10.8561C11 10.3385 11.44 9.91507 12 9.91507C12.55 9.91507 13 10.3385 13 10.8561C13 11.3737 12.56 11.7972 12 11.7972ZM16 11.7972C15.44 11.7972 15 11.3737 15 10.8561C15 10.3385 15.44 9.91507 16 9.91507C16.55 9.91507 17 10.3385 17 10.8561C17 11.3737 16.56 11.7972 16 11.7972Z" fill="#292D32"/>
</g>
<defs>
<clipPath id="clip0_46_1026">
<rect width="24" height="22.5854" fill="white" transform="translate(0 0.504486)"/>
</clipPath>
</defs>
</svg>
