<svg width="12" height="15" viewBox="0 0 12 15" fill="none" xmlns="http://www.w3.org/2000/svg">
<path d="M4.8 12.96V8.64H1.2C0.88174 8.64 0.576516 8.48829 0.351472 8.21823C0.126428 7.94818 0 7.58191 0 7.2C0 6.81809 0.126428 6.45182 0.351472 6.18177C0.576516 5.91171 0.88174 5.76 1.2 5.76H4.8V1.44C4.8 1.05809 4.92643 0.691819 5.15147 0.421766C5.37652 0.151714 5.68174 0 6 0C6.31826 0 6.62348 0.151714 6.84853 0.421766C7.07357 0.691819 7.2 1.05809 7.2 1.44V5.76H10.8C11.1183 5.76 11.4235 5.91171 11.6485 6.18177C11.8736 6.45182 12 6.81809 12 7.2C12 7.58191 11.8736 7.94818 11.6485 8.21823C11.4235 8.48829 11.1183 8.64 10.8 8.64H7.2V12.96C7.2 13.3419 7.07357 13.7082 6.84853 13.9782C6.62348 14.2483 6.31826 14.4 6 14.4C5.68174 14.4 5.37652 14.2483 5.15147 13.9782C4.92643 13.7082 4.8 13.3419 4.8 12.96Z" fill="white"/>
</svg>
