<svg width="23" height="22" viewBox="0 0 23 22" fill="none" xmlns="http://www.w3.org/2000/svg">
<path d="M15.9463 20.163H5.10845C4.72575 20.1646 4.34662 20.0907 3.99355 19.9459C3.64047 19.801 3.32064 19.5881 3.053 19.3197C2.78297 19.0536 2.56957 18.7374 2.42521 18.3896C2.28086 18.0418 2.20842 17.6694 2.21213 17.2939V6.66969C2.20736 6.29595 2.28029 5.92517 2.42647 5.58002C2.57265 5.23486 2.78901 4.92256 3.06234 4.66219C3.32829 4.39764 3.64611 4.18871 3.99664 4.04802C4.35144 3.90137 4.73279 3.82654 5.11779 3.82802H9.26606C9.4519 3.82802 9.63013 3.90046 9.76155 4.02939C9.89296 4.15832 9.96678 4.33319 9.96678 4.51552C9.96678 4.69786 9.89296 4.87273 9.76155 5.00166C9.63013 5.13059 9.4519 5.20302 9.26606 5.20302H5.11779C4.91684 5.20839 4.71808 5.24553 4.52919 5.31302C4.25389 5.42704 4.01915 5.61845 3.85455 5.86314C3.68994 6.10783 3.60285 6.39485 3.60423 6.68802V17.3122C3.60189 17.5091 3.63951 17.7046 3.7149 17.8871C3.79029 18.0697 3.90194 18.2357 4.04335 18.3755C4.18474 18.5132 4.35243 18.6221 4.53681 18.696C4.72118 18.7699 4.91862 18.8074 5.11779 18.8064H15.9556C16.1546 18.8064 16.3508 18.7697 16.5349 18.6964C16.7175 18.6232 16.8829 18.514 17.0207 18.3755C17.1629 18.2412 17.2744 18.0787 17.3477 17.8989C17.43 17.7172 17.4714 17.5202 17.4692 17.3214V13.2514C17.4692 13.069 17.543 12.8942 17.6744 12.7652C17.8058 12.6363 17.984 12.5639 18.1699 12.5639C18.3557 12.5639 18.534 12.6363 18.6654 12.7652C18.7968 12.8942 18.8706 13.069 18.8706 13.2514V17.3489C18.8722 17.7243 18.7969 18.0963 18.6493 18.4427C18.5016 18.7891 18.2846 19.1029 18.0111 19.3655C17.7434 19.6304 17.4262 19.842 17.0768 19.9889C16.7152 20.1172 16.3312 20.1768 15.9463 20.163Z" fill="black"/>
<path d="M20.7209 5.00136C20.6268 4.76477 20.4799 4.5518 20.2911 4.37802L18.2824 2.40719C18.1053 2.22196 17.8882 2.0779 17.6471 1.98552C17.2856 1.83608 16.8867 1.79638 16.502 1.87154C16.1173 1.94671 15.7644 2.13328 15.4889 2.40719L13.8912 3.97469V4.02052L6.65976 11.1064C6.29554 11.4676 6.09081 11.9549 6.08984 12.463V14.4522C6.0923 14.9644 6.30079 15.455 6.66996 15.8172C7.03913 16.1794 7.53913 16.3839 8.06121 16.3864H10.0886C10.3461 16.3867 10.601 16.3366 10.8384 16.239C11.0759 16.1414 11.2911 15.9983 11.4714 15.818L18.7028 8.72302L20.3098 7.14636C20.4985 6.97219 20.6462 6.75952 20.7396 6.52302C20.8465 6.28793 20.9018 6.03338 20.9018 5.77594C20.9018 5.5185 20.8465 5.26395 20.7396 5.02886L20.7209 5.00136ZM19.4316 5.96386C19.4022 6.03366 19.3576 6.09626 19.3008 6.14719L18.1609 7.26552L15.3581 4.51552L16.5072 3.38802C16.6176 3.28328 16.7648 3.2242 16.9183 3.22302C16.9924 3.22399 17.0654 3.23957 17.1332 3.26886C17.2042 3.29819 17.2687 3.34219 17.3201 3.39719L19.3381 5.36802C19.3892 5.42175 19.4303 5.48379 19.4596 5.55136C19.4737 5.62095 19.4737 5.69259 19.4596 5.76219C19.4631 5.83054 19.4536 5.89893 19.4316 5.96386Z" fill="black"/>
</svg>
